<?xml version="1.0" encoding="utf-8"?>
<!-- Generator: Adobe Illustrator 21.1.0, SVG Export Plug-In . SVG Version: 6.00 Build 0)  -->
<svg version="1.1" id="Layer_1" xmlns="http://www.w3.org/2000/svg" xmlns:xlink="http://www.w3.org/1999/xlink" x="0px" y="0px"
	 viewBox="0 0 107 26" style="enable-background:new 0 0 107 26;" xml:space="preserve">
<style type="text/css">
	.st0{fill:#172B75;}
	.st1{fill:#8BC53F;}
	.st2{fill:#002E6E;}
</style>
<title>logo</title>
<desc>Created with Sketch.</desc>
<g>
	<g>
		<path class="st0" d="M77.8,8.9c-5.4,0-10.9,0-16.4,0c-1.8,0-3.6,0.7-4.3,3.1c-0.8,3.3-1.2,4.7-2.4,9.1c-0.6,2,0.3,4.2,2.9,4.2
			c5.6,0,11.9,0,17.5,0c2.1,0,2.7-2.5,3-3.4c-4.9,0-8.5,0-13.3,0c-1.2,0-1.3-0.7-1-1.9l1.2-4.4c0,0,0.3,3.3,3,3.3h8.3
			c2.5,0,2.8-1.2,3.5-3.7c0.3-1,0.6-2.2,0.8-3.2C81.3,10.2,80.1,8.9,77.8,8.9z M65.1,15.2l0.6-2.3c0.1-0.4,0.6-0.8,1-0.8H71
			c0.5,0,0.7,0.4,0.6,0.8l-0.4,1.5c-0.1,0.4-0.6,0.8-1,0.8L65.1,15.2z"/>
	</g>
	<g>
		<path class="st0" d="M102.3,8.9c-4.3,0-8.7,0-12.6,0c-3.8,0-6.3,3.2-6.3,3.2h2.9h4.8h0.4c0,0-8.7,1.8-10,6.7
			c-0.8,3.1-1.8,6.6-1.8,6.6c2,0,4.1,0,6.1,0c2.6,0,3.4-2.3,3.5-2.8c0.9-3.5,1.8-7,2.8-10.4c1.1,0,2.7,0,3.8,0
			c1.6,0,1.6,0.7,1.2,2.2c-1.1,4.1-2,7.7-3,11.1c2,0,4.1,0,6.2,0c2.6,0,3.3-2.4,3.4-2.8c0.7-2.5,1.3-4.8,2-7.2
			C106.8,12.1,107.4,8.9,102.3,8.9z"/>
	</g>
	<path class="st1" d="M52.9,9.1c-0.3-0.1-0.6-0.2-1-0.2c-0.1,0-0.3,0-0.4,0c-5.4,0-11.5,0-16.8,0c-1.9,0-3.7,0.9-4.2,3.1h11.2
		c0.7,0,1,0,1.6,0h0.5v0c1.2,0,1.8,0.1,1.5,1.1c-0.3,0.9-0.3,0.9-0.4,1.4c-0.2,0.6-0.1,0.7-0.7,0.7c-0.2,0-1.9,0-8.1,0
		c-6.8,0-7.8,5-7.8,5l-0.9,3.4l0,0l0,0c0,0.1,0,0.2,0,0.3c0,0.3,0.1,0.5,0.2,0.7c0.2,0.4,0.6,0.6,1.1,0.6c0,0,0,0,0,0
		c1.4,0,3.1,0,4.8,0c0.6,0,1.2,0,1.8,0c3,0,6.2,0,9,0c0.2,0,0.4,0,0.6,0c1.4,0,2.7,0,3.8,0c2.1,0,2.7-2.4,2.9-3.4
		c-2.6,0-4.6,0-6.8,0c-0.2,0-0.5,0-0.7,0c-1,0-2,0-3.1,0c-0.2,0-0.4,0-0.7,0h-3.8c0.7-1.8,0.9-3,2.9-3c0,0,1.5,0,1.5,0h9
		c2.4,0,2.6-0.5,3.2-3c0,0,0.6-2.3,1-3.7C54.7,10.7,53.8,9.5,52.9,9.1z"/>
	<g>
		<g>
			<path class="st0" d="M11.3,19.4l2-7.3c0,0-9.4,1.9-10.7,6.9c-0.6,2.2-1.1,4.2-1.7,6.4C3.6,20.5,9.2,19.5,11.3,19.4z"/>
		</g>
		<g>
			<path class="st2" d="M16.9,19.6L16.8,20C16.8,19.9,16.9,19.7,16.9,19.6z"/>
			<path class="st0" d="M24.6,8.9L24.6,8.9L24.6,8.9L24.6,8.9L24.6,8.9h-1c-0.8,0-1.6,0-2.5,0c-2.4,0-5,0-7.1,0l2.2-8.2h-1.6
				c-2.5,0-7.6,1.1-8.6,4.8l-1.7,6.5l9,0c1.1,0,2.6,0,3.8,0c1.7,0,1.8,0.6,1.4,2.1l-1.6,5.5c0,0.1-0.1,0.3-0.1,0.4l0,0l0,0
				c-0.5,1.4-1,1.8-3.3,1.8c0,0,0,0,0,0c-0.2,0-0.3,0-0.5,0c-1.2,0-4.5,0.2-7.3,1.1C5.6,23,5.5,23,5.4,23c0,0-0.1,0-0.1,0
				c-3.4,1.1-4.5,2.2-4.5,2.2h9h8.2c2.7,0,5.8,0,7.5-5.2l2-7.5c0-0.2,0.1-0.3,0.1-0.5c0-0.1,0-0.2,0-0.3
				C27.6,10.2,26.2,8.9,24.6,8.9z"/>
		</g>
	</g>
</g>
</svg>
